<?xml version="1.0" encoding="UTF-8"?>
<svg width="460px" height="774px" viewBox="0 0 460 774" version="1.1" xmlns="http://www.w3.org/2000/svg" xmlns:xlink="http://www.w3.org/1999/xlink">
    <!-- Generator: Sketch 47.1 (45422) - http://www.bohemiancoding.com/sketch -->
    <title>Slice</title>
    <desc>Created with Sketch.</desc>
    <defs>
        <rect id="path-1" x="137" y="153" width="189" height="69"></rect>
        <rect id="path-2" x="207" y="239" width="54" height="27"></rect>
        <linearGradient x1="50%" y1="5.01434949%" x2="50%" y2="97.8435906%" id="linearGradient-3">
            <stop stop-color="#646464" offset="0%"></stop>
            <stop stop-color="#484848" offset="21.8371333%"></stop>
            <stop stop-color="#222222" offset="83.46022%"></stop>
            <stop stop-color="#4E4E4E" offset="100%"></stop>
        </linearGradient>
        <path d="M18,109 C14.4673358,110.009333 13.8230406,117.325266 13,123 C10.2233785,142.144362 11,164.458977 11,184 C11,203.945074 9,239 11,247 C13,255 12,256 18,259 C24,262 61.3952353,260.201588 65,259 C68.6047647,257.798412 68.6975658,247.670641 69,242 C69.2016228,238.219573 69.2016228,218.886239 69,184 C69.6833913,160.14692 69.6833913,141.813587 69,129 C68.3166087,116.186413 65.9832754,109.519747 62,109 C35.0217761,108.327112 20.3551094,108.327112 18,109 Z" id="path-4"></path>
        <path d="M397.09994,109 C393.567276,110.009333 392.922981,117.325266 392.09994,123 C389.323319,142.144362 390.09994,164.458977 390.09994,184 C390.09994,203.945074 390.587397,233 392.09994,247 C393.108302,256.333333 394.774969,260.333333 397.09994,259 C426.030097,259.801059 441.696764,259.801059 444.09994,259 C447.704705,257.798412 447.797506,247.670641 448.09994,242 C448.301563,238.219573 448.301563,218.886239 448.09994,184 C448.783331,160.14692 448.783331,141.813587 448.09994,129 C447.416549,116.186413 445.083215,109.519747 441.09994,109 C414.121716,108.327112 399.455049,108.327112 397.09994,109 Z" id="path-5"></path>
        <path d="M28.146144,605 C24.1100221,606.009333 23.373905,613.325266 22.4335688,619 C19.261237,638.144362 20.1485387,660.458977 20.1485387,680 C20.1485387,699.945074 20.8671376,735 22.4335688,743 C24,751 24,750 28.146144,755 C32.292288,760 77.7694775,756.188861 81.8443512,755 C85.9192249,753.811139 86.0688758,743.670641 86.4144114,738 C86.6447684,734.219573 86.6447684,714.886239 86.4144114,680 C87.1951962,656.14692 87.1951962,637.813587 86.4144114,625 C85.6336265,612.186413 82.9677581,605.519747 78.416806,605 C47.5937793,604.327112 30.836892,604.327112 28.146144,605 Z" id="path-6"></path>
        <path d="M382.965644,605 C378.247219,606.17996 376.339549,613.325266 375.399213,619 C372.226881,638.144362 373.114183,660.458977 373.114183,680 C373.114183,699.945074 373.114183,738 373.965644,744 C374.817106,750 375.399213,751 381.111788,755 C386.824364,759 430.692966,756.20116 434.809996,755 C438.927025,753.79884 439.03452,743.670641 439.380056,738 C439.610413,734.219573 439.610413,714.886239 439.380056,680 C440.160841,656.14692 440.160841,637.813587 439.380056,625 C438.599271,612.186413 435.933402,605.519747 431.38245,605 C402.250197,604.21336 386.111261,604.21336 382.965644,605 Z" id="path-7"></path>
        <path d="M201.120739,279.639456 L233.5,278 L265.879261,279.639456 L265.879261,279.639456 C269.868876,279.841462 273,283.135135 273,287.129861 L273,288.5 L273,288.5 C273,292.642136 269.642136,296 265.5,296 L201.5,296 L201.5,296 C197.357864,296 194,292.642136 194,288.5 L194,287.129861 L194,287.129861 C194,283.135135 197.131124,279.841462 201.120739,279.639456 Z" id="path-8"></path>
    </defs>
    <g id="Page-1" stroke="none" stroke-width="1" fill="none" fill-rule="evenodd">
        <g id="Rectangle">
            <use fill="#EFEFEF" fill-rule="evenodd" xlink:href="#path-1"></use>
            <rect stroke="#353435" stroke-width="3" x="138.5" y="154.5" width="186" height="66"></rect>
        </g>
        <path d="M82.5,152.888889 L82.5,200" id="Path-3" stroke="#262626" stroke-width="5"></path>
        <path d="M380.5,152.888889 L380.5,200" id="Path-3" stroke="#262626" stroke-width="5"></path>
        <polyline id="Path-7" stroke="#979797" stroke-width="3" points="63 169 234 116 400 169"></polyline>
        <polygon id="Path-2" stroke="#454545" stroke-width="6" points="69 177 151 152 316 152 392 177 392 197 316 222 303 234 170 234 149 222 69 197"></polygon>
        <path d="M152.5,210.5 L81,184" id="Path-3" stroke="#454545" stroke-width="5"></path>
        <path d="M380.5,207.5 L309.5,183.5" id="Path-3" stroke="#454545" stroke-width="5" transform="translate(345.000000, 195.500000) scale(-1, 1) translate(-345.000000, -195.500000) "></path>
        <polygon id="Path-4" stroke="#454545" stroke-width="7" points="81 672 131 648 332 648 381 672 381 683.013103 381 696 332 717 131 717 81 696 81 683"></polygon>
        <path d="M80,680 L380,680" id="Path-5" stroke="#454545" stroke-width="6"></path>
        <polygon id="Path-6" stroke="#4A4A4A" stroke-width="2" fill="#FFFFFF" points="182 8 151 152.987377 151 228.54418 127 489.929874 132 736 329 736 341 489.929874 313 228.54418 313 152.987377 285 8"></polygon>
        <polygon id="Path-6" stroke="#4A4A4A" stroke-width="2" fill="#FFFFFF" points="186.859813 8 158.757009 155.377279 158.757009 232.179523 137 497.873773 141.53271 748 320.121495 748 331 497.873773 305.616822 232.179523 305.616822 155.377279 280.233645 8"></polygon>
        <polyline id="Path" stroke="#454545" stroke-width="5" fill="#FFFFFF" points="195 237 234 273 272 237"></polyline>
        <polyline id="Path-12" stroke="#4A4A4A" stroke-width="2" opacity="0.356487772" points="216 8 184 156.330317 184 231"></polyline>
        <polyline id="Path-12" stroke="#4A4A4A" stroke-width="2" opacity="0.356487772" transform="translate(262.000000, 119.500000) scale(-1, 1) translate(-262.000000, -119.500000) " points="278 8 246 156.330317 246 231"></polyline>
        <polyline id="Path-12" stroke="#4A4A4A" stroke-width="2" opacity="0.1328125" points="221 515 184 650 184 747"></polyline>
        <polyline id="Path-12" stroke="#4A4A4A" stroke-width="2" opacity="0.1328125" transform="translate(265.000000, 629.000000) scale(-1, 1) translate(-265.000000, -629.000000) " points="281 511 249 650 249 747"></polyline>
        <path d="M176,38.5 L291.5,38.5" id="Line" stroke="#4A4A4A" stroke-width="2" stroke-linecap="square"></path>
        <path d="M177,33.5 L289,33.5" id="Line" stroke-opacity="0.559499547" stroke="#4A4A4A" stroke-width="2" stroke-linecap="square"></path>
        <path d="M178.5,35.5 L286.5,35.5" id="Line" stroke="#FFFFFF" stroke-width="3" stroke-linecap="square"></path>
        <path d="M295,239 L330.5,495.5" id="Path-9" stroke="#4A4A4A" stroke-width="2"></path>
        <path d="M172,237 L137,495" id="Path-9" stroke="#4A4A4A" stroke-width="2"></path>
        <polyline id="Path-8" stroke="#4A4A4A" stroke-width="7" points="150 223 168 235 298 235 313 223"></polyline>
        <polyline id="Path-8" stroke="#4A4A4A" stroke-width="2" points="150 226 168 238 298 238 313 226"></polyline>
        <polyline id="Path-8" stroke="#4A4A4A" stroke-width="2" points="150 220 168 232 298 232 313 220"></polyline>
        <polyline id="Path-8" stroke="#FFFFFF" stroke-width="2" points="150 223 168 235 298 235 313 223"></polyline>
        <g id="Rectangle-2">
            <use fill="#4A4A4A" fill-rule="evenodd" xlink:href="#path-2"></use>
            <rect stroke-opacity="0.714221014" stroke="#000000" stroke-width="2" x="208" y="240" width="52" height="25"></rect>
        </g>
        <g id="Wheel">
            <use fill="url(#linearGradient-3)" fill-rule="evenodd" xlink:href="#path-4"></use>
            <path stroke-opacity="0.907750226" stroke="#000000" stroke-width="2" d="M17.7252789,108.038476 C20.2376802,107.320647 34.7750632,107.320647 62.0249342,108.000311 L62.1293854,108.008406 C66.8328026,108.622118 69.2888567,115.639415 69.9985808,128.946742 C70.6836962,141.792656 70.6836962,160.1506 69.9999833,183.994221 C70.2018621,218.924758 70.2018621,238.241733 69.9985808,242.053258 C69.9830898,242.343714 69.9674439,242.658738 69.9491012,243.04565 C69.936853,243.304006 69.894028,244.228561 69.88758,244.36609 C69.8620683,244.91023 69.840793,245.344794 69.8183666,245.772347 C69.7607221,246.871327 69.7001415,247.824011 69.6268996,248.734483 C69.0991212,255.295316 67.9858158,259.058821 65.3162278,259.948683 C59.8774207,261.761619 22.8646114,262.55034 17.5527864,259.894427 C16.1177023,259.176885 15.1085715,258.587771 14.3245058,257.995429 C12.6142472,256.703373 11.9163177,255.421222 11.2873071,252.785096 C11.255166,252.650396 10.4186809,248.797829 10.0298575,247.242536 C8.91548924,242.785063 8.89129855,232.810337 9.50595277,209.296675 C9.52041653,208.743363 9.53088127,208.344831 9.55590164,207.393726 C9.89506319,194.505587 10,189.508403 10,184 C10,181.09145 9.98812123,178.818479 9.95005341,173.25859 C9.89025292,164.524594 9.88036514,160.426026 9.93268234,155.426219 C10.0688055,142.417314 10.6701363,132.097058 12.0103546,122.856466 C12.0538217,122.556767 12.0987616,122.239044 12.1522272,121.854872 C12.1851858,121.618051 12.3070249,120.735706 12.3341142,120.540735 C12.4066691,120.018531 12.465647,119.602285 12.5245463,119.199789 C13.5418012,112.248236 14.7585258,108.88612 17.7252789,108.038476 Z"></path>
        </g>
        <g id="Wheel" transform="translate(419.306242, 184.048064) scale(-1, 1) translate(-419.306242, -184.048064) ">
            <use fill="url(#linearGradient-3)" fill-rule="evenodd" xlink:href="#path-5"></use>
            <path stroke-opacity="0.907750226" stroke="#000000" stroke-width="2" d="M397.329933,260.00674 C395.627333,260.802546 394.165263,259.741722 393.183135,257.384615 C392.304168,255.275096 391.619402,251.861967 391.105726,247.107414 C389.786509,234.896837 389.09994,209.48852 389.09994,184 C389.09994,181.09145 389.088061,178.818479 389.049993,173.25859 C388.990193,164.524594 388.980305,160.426026 389.032622,155.426219 C389.168746,142.417314 389.770076,132.097058 391.110295,122.856466 C391.153762,122.556767 391.198702,122.239044 391.252167,121.854872 C391.285126,121.618051 391.406965,120.735706 391.434054,120.540735 C391.506609,120.018531 391.565587,119.602285 391.624486,119.199789 C392.641741,112.248236 393.858466,108.88612 396.825219,108.038476 C399.33762,107.320647 413.875003,107.320647 441.124874,108.000311 L441.229325,108.008406 C445.932743,108.622118 448.388797,115.639415 449.098521,128.946742 C449.783636,141.792656 449.783636,160.1506 449.099923,183.994221 C449.301802,218.924758 449.301802,238.241733 449.098521,242.053258 C449.08303,242.343714 449.067384,242.658738 449.049041,243.04565 C449.036793,243.304006 448.993968,244.228561 448.98752,244.36609 C448.962008,244.91023 448.940733,245.344794 448.918307,245.772347 C448.860662,246.871327 448.800082,247.824011 448.72684,248.734483 C448.199061,255.295316 447.085756,259.058821 444.416168,259.948683 C441.840785,260.807144 426.418505,260.809668 397.329932,260.00674 Z"></path>
        </g>
        <g id="Wheel">
            <use fill="url(#linearGradient-3)" fill-rule="evenodd" xlink:href="#path-6"></use>
            <path stroke-opacity="0.907750226" stroke="#000000" stroke-width="2" d="M27.90354,604.029875 C30.7338198,603.322093 47.3747971,603.322093 78.5302746,604.006458 C83.7829527,604.606346 86.6033751,611.659514 87.41256,624.939179 C88.195594,637.789676 88.195594,656.15113 87.4143896,679.993397 C87.6450806,714.930217 87.6450806,734.244888 87.41256,738.060821 C87.3974688,738.308487 87.3820455,738.576155 87.3644915,738.892816 C87.3491498,739.169568 87.2955508,740.161839 87.2910438,740.244402 C87.260333,740.80699 87.2349965,741.251786 87.2081882,741.691084 C87.1388846,742.826736 87.0660367,743.810312 86.9777562,744.750615 C86.3643267,751.28444 85.0750519,755.099121 82.1244284,755.959977 C79.6738291,756.67495 66.3895773,757.884723 55.0603739,758.320085 C39.5862757,758.914728 29.5379299,758.245028 27.3763711,755.638318 C27.0135786,755.200812 26.6688343,754.792408 26.2606067,754.314495 C26.2193926,754.266245 25.5261776,753.457145 25.3479072,753.247121 C24.6934274,752.476065 24.3050421,751.984458 23.9647289,751.476889 C23.3227552,750.519402 22.9132774,749.566637 22.5214545,748.121867 C22.2319199,747.054265 21.9557141,745.763656 21.4522042,743.192155 C20.0779403,736.173582 19.1485387,705.832817 19.1485387,680 C19.1485387,677.091891 19.1349682,674.81912 19.0914778,669.259566 C19.0231485,660.524758 19.01185,656.425623 19.0716362,651.424728 C19.227227,638.410125 19.9146378,628.08414 21.4470216,618.836523 C21.4966364,618.537108 21.5479424,618.219623 21.6089909,617.835682 C21.6466324,617.59895 21.7858324,616.716625 21.8167948,616.521575 C21.899736,615.999081 21.9671667,615.582541 22.0345209,615.179681 C23.1916913,608.258384 24.598287,604.856435 27.90354,604.029875 Z"></path>
        </g>
        <g id="Wheel" transform="translate(406.482822, 680.742963) scale(-1, 1) translate(-406.482822, -680.742963) ">
            <use fill="url(#linearGradient-3)" fill-rule="evenodd" xlink:href="#path-7"></use>
            <path stroke-opacity="0.907750226" stroke="#000000" stroke-width="2" d="M382.72304,604.029875 C386.008273,603.20832 402.077051,603.20832 431.495919,604.006458 C436.748597,604.606346 439.569019,611.659514 440.378204,624.939179 C441.161238,637.789676 441.161238,656.15113 440.380034,679.993397 C440.610725,714.930217 440.610725,734.244888 440.378204,738.060821 C440.360609,738.349586 440.342824,738.662834 440.321992,739.047146 C440.307957,739.30605 440.258897,740.232441 440.251602,740.368549 C440.22239,740.913521 440.198035,741.348661 440.172356,741.776892 C440.106313,742.878236 440.036892,743.833135 439.952933,744.745982 C439.351709,751.282814 438.064213,755.09226 435.090073,755.959977 C432.740621,756.645439 420.115883,757.619327 408.587896,757.950024 C393.701189,758.37707 383.356735,757.792709 380.538211,755.819151 C374.661321,751.704097 373.875833,750.484434 372.975564,744.140503 C372.281876,739.252285 372.114183,719.152842 372.114183,680 C372.114183,677.091891 372.100613,674.81912 372.057122,669.259566 C371.988793,660.524758 371.977494,656.425623 372.03728,651.424728 C372.192871,638.410125 372.880282,628.08414 374.412666,618.836523 C375.79824,610.474871 378.176484,605.166854 382.72304,604.029875 Z"></path>
        </g>
        <polygon id="Path-10" stroke="#3B3B3B" fill="#FFFFFF" transform="translate(162.173066, 575.819562) rotate(111.000000) translate(-162.173066, -575.819562) " points="84.1099519 571.319562 240.23618 571.319562 240.972625 580.319562 83.3735075 580.319562"></polygon>
        <polygon id="Path-10" stroke="#3B3B3B" fill="#FFFFFF" points="277.597928 506.629578 325 652 333.129003 649.131451 287.269385 502"></polygon>
        <polygon id="Path-10" stroke="#3B3B3B" fill="#FFFFFF" transform="translate(232.047831, 648.660027) rotate(-180.000000) translate(-232.047831, -648.660027) " points="131.048486 644.160027 333.047176 644.160027 334 653.160027 130.095662 653.160027"></polygon>
        <path d="" id="Path-13" stroke="#979797"></path>
        <polygon id="Path-10" stroke="#3B3B3B" fill="#FFFFFF" points="128 479 340 479 341 487 127 487"></polygon>
        <path d="M128,479 L192,504 C199.708155,506.734657 205.573496,508.490863 209.596023,509.268619 C215.565788,510.422873 221.700447,511 228,511 C247,511 236.779238,511 247,511 C261.247021,511 272.913688,508.666667 282,504 L340,479 L341,487 L282,511 C274.36059,515 265.693923,517 256,517 C249.612869,517 230.492997,518.736491 214,517 C208.307418,516.400648 200.974084,514.400648 192,511 L127,487 L128,479 Z" id="Path-10" stroke="#3B3B3B" fill="#FFFFFF"></path>
        <path d="M179,267 C186.333333,271.666667 204.5,274 233.5,274 C262.5,274 280.333333,271.666667 287,267 C298.333333,299 300,326.666667 292,350 C284,373.333333 292.333333,391.666667 317,405 C316.333333,450.333333 314.333333,474.666667 311,478 C306,483 277.71072,478.946177 267,483 C270,503 247.541521,503 238,503 C226.798323,503 202,503 205,483 C195.656601,479.395132 168,482 160,478 C154.666667,475.333333 151.333333,451 150,405 C172.666667,390.333333 181,372 175,350 C169,328 170.333333,300.333333 179,267 Z" id="Path-11" stroke="#404040" stroke-width="2" fill="#FFFFFF"></path>
        <path d="M292,239 L324.5,476.5" id="Path-9" stroke="#FFFFFF" stroke-width="4"></path>
        <path d="M289,239 L322,478" id="Path-9" stroke="#4A4A4A" stroke-width="2"></path>
        <path d="M178,237 L145,479" id="Path-9" stroke="#4A4A4A" stroke-width="2"></path>
        <path d="M175,237 L142,476" id="Path-9" stroke="#FFFFFF" stroke-width="4"></path>
        <path d="M234,313 L234,424" id="Path-14" stroke="#979797" opacity="0.127038043" transform="translate(234.000000, 368.500000) scale(-1, 1) rotate(-90.000000) translate(-234.000000, -368.500000) "></path>
        <path d="M239.5,266.5 C233.5,283.38088 230.5,296.047547 230.5,304.5 C230.5,312.952453 233.5,325.61912 239.5,342.5" id="Path-14" stroke="#979797" opacity="0.230129076" transform="translate(235.000000, 304.500000) scale(-1, 1) rotate(-270.000000) translate(-235.000000, -304.500000) "></path>
        <path d="M212,381 C206,399.213581 203,412.880248 203,422 C203,431.119752 206,444.786419 212,463" id="Path-14" stroke="#979797" opacity="0.406929348"></path>
        <path d="M269,381 C263,399.213581 260,412.880248 260,422 C260,431.119752 263,444.786419 269,463" id="Path-14" stroke="#979797" opacity="0.406929348" transform="translate(264.500000, 422.000000) scale(-1, 1) translate(-264.500000, -422.000000) "></path>
        <polygon id="Triangle" stroke="#454545" fill="#454545" points="234 268 246 279 222 279"></polygon>
        <g id="Rectangle-3">
            <use fill="#FFFFFF" fill-rule="evenodd" xlink:href="#path-8"></use>
            <path stroke="#343333" stroke-width="2" d="M233.5,279.001281 L201.171307,280.638177 C197.71364,280.813249 195,283.667765 195,287.129861 L195,288.5 C195,292.089851 197.910149,295 201.5,295 L265.5,295 C269.089851,295 272,292.089851 272,288.5 L272,287.129861 C272,283.667765 269.28636,280.813249 265.828693,280.638177 L233.5,279.001281 Z"></path>
        </g>
        <ellipse id="Oval" stroke="#343333" stroke-width="2" fill="#FFFFFF" cx="233.5" cy="292.5" rx="37.5" ry="4.5"></ellipse>
        <path d="M228,511.042914 C236.643783,511.00205 236.779238,511.00141 247,510.95309 C255.184997,510.914394 262.518331,509.511278 269,506.703423 L269,519.232172 C264.894043,520.778817 260.560709,521.518744 256,521.466635 C249.612869,521.393657 230.492997,524.111046 214,520.986754 C210.839184,520.405605 207.172517,519.96959 203,518 C201.666667,508 201.666667,503.666667 203,505 C205,507 219.356217,511.083779 228,511.042914 Z" id="Combined-Shape" stroke="#3B3B3B" fill="#F8F8F8"></path>
    </g>
</svg>